<?xml version="1.0" encoding="UTF-8" standalone="no"?>
<svg
   xmlns:dc="http://purl.org/dc/elements/1.1/"
   xmlns:cc="http://creativecommons.org/ns#"
   xmlns:rdf="http://www.w3.org/1999/02/22-rdf-syntax-ns#"
   xmlns:svg="http://www.w3.org/2000/svg"
   xmlns="http://www.w3.org/2000/svg"
   xmlns:sodipodi="http://sodipodi.sourceforge.net/DTD/sodipodi-0.dtd"
   xmlns:inkscape="http://www.inkscape.org/namespaces/inkscape"
   id="Layer_1"
   data-name="Layer 1"
   viewBox="0 0 50 50"
   version="1.1"
   sodipodi:docname="about.svg"
   width="50"
   height="50"
   inkscape:version="0.92.3 (2405546, 2018-03-11)">
  <metadata
     id="metadata23">
    <rdf:RDF>
      <cc:Work
         rdf:about="">
        <dc:format>image/svg+xml</dc:format>
        <dc:type
           rdf:resource="http://purl.org/dc/dcmitype/StillImage" />
        <dc:title>volunteer-icon</dc:title>
      </cc:Work>
    </rdf:RDF>
  </metadata>
  <defs
     id="defs21" />
  <sodipodi:namedview
     pagecolor="#ffffff"
     bordercolor="#666666"
     borderopacity="1"
     objecttolerance="10"
     gridtolerance="10"
     guidetolerance="10"
     inkscape:pageopacity="0"
     inkscape:pageshadow="2"
     inkscape:window-width="1680"
     inkscape:window-height="985"
     id="namedview19"
     showgrid="false"
     inkscape:zoom="9.44"
     inkscape:cx="35.002729"
     inkscape:cy="25.832192"
     inkscape:window-x="0"
     inkscape:window-y="0"
     inkscape:window-maximized="1"
     inkscape:current-layer="Layer_1" />
  <title
     id="title2">volunteer-icon</title>
  <circle
     cx="24.955475"
     cy="24.968327"
     r="24.753971"
     id="circle4"
     style="fill:none;stroke-width:0.24753971;fill-opacity:1" />
  <circle
     cx="13.645506"
     cy="12.648396"
     r="5.433497"
     id="circle6"
     style="fill:#f3f3f3;fill-opacity:1;stroke-width:0.24753971" />
  <circle
     cx="36.272869"
     cy="12.648396"
     r="5.433497"
     id="circle8"
     style="fill:#ffffff;fill-opacity:1;stroke-width:0.24753971" />
  <circle
     cx="24.960424"
     cy="22.099342"
     r="5.433497"
     id="circle10"
     style="fill:#ffffff;stroke-width:0.24753971;fill-opacity:1" />
  <path
     d="m 29.057207,28.970924 c -2.367636,1.992916 -5.825928,1.992916 -8.193564,0 -3.107602,1.633817 -5.098279,4.810772 -5.213186,8.319809 v 5.426215 c 1.423202,0 4.168568,0.0048 9.307493,0.0048 5.138924,0 7.838717,0.03017 9.307493,0.03017 l 0.01238,-5.461192 C 34.161948,33.779954 32.16805,30.602387 29.05721,28.970924 Z"
     id="path12"
     inkscape:connector-curvature="0"
     style="fill:#fcfcfc;fill-opacity:1;stroke-width:0.24753971"
     sodipodi:nodetypes="ccccscccc" />
  <path
     d="m 18.170532,26.287714 c -1.481223,-1.690803 -1.959356,-4.038169 -1.257502,-6.17364 -2.328941,1.393215 -5.285268,1.155635 -7.361831,-0.59162 -3.107807,1.63273 -5.0993832,4.808666 -5.2156617,8.317334 l 0,5.434656 c 1.536017,0 3.6075063,-0.0086 8.6638897,-0.0086 0.653147,-2.955478 2.533651,-5.493123 5.171105,-6.978145 z"
     id="path14"
     inkscape:connector-curvature="0"
     style="fill:#ffffff;fill-opacity:1;stroke-width:0.24753971"
     sodipodi:nodetypes="ccccccc" />
  <path
     d="m 45.582837,27.842264 c -0.114412,-3.50851 -2.104066,-6.68534 -5.21071,-8.31981 -2.077346,1.74768 -5.034599,1.985254 -7.364307,0.59162 0.702517,2.135039 0.225337,4.482353 -1.255026,6.17364 2.64895,1.4803 4.540161,4.020827 5.198334,6.983095 4.928994,0 7.146152,-0.0037 8.631709,-0.0037 z"
     id="path16"
     inkscape:connector-curvature="0"
     style="fill:#ffffff;fill-opacity:1;stroke-width:0.24753971"
     sodipodi:nodetypes="ccccccc" />
</svg>
