<?xml version="1.0" encoding="UTF-8" standalone="no"?>
<!-- Generator: Adobe Illustrator 19.0.0, SVG Export Plug-In . SVG Version: 6.00 Build 0)  -->

<svg
   xmlns:dc="http://purl.org/dc/elements/1.1/"
   xmlns:cc="http://creativecommons.org/ns#"
   xmlns:rdf="http://www.w3.org/1999/02/22-rdf-syntax-ns#"
   xmlns:svg="http://www.w3.org/2000/svg"
   xmlns="http://www.w3.org/2000/svg"
   xmlns:sodipodi="http://sodipodi.sourceforge.net/DTD/sodipodi-0.dtd"
   xmlns:inkscape="http://www.inkscape.org/namespaces/inkscape"
   version="1.1"
   id="Capa_1"
   x="0px"
   y="0px"
   viewBox="0 0 50 50"
   xml:space="preserve"
   sodipodi:docname="email.svg"
   width="50"
   height="50"
   inkscape:version="0.92.3 (2405546, 2018-03-11)"><metadata
   id="metadata43"><rdf:RDF><cc:Work
       rdf:about=""><dc:format>image/svg+xml</dc:format><dc:type
         rdf:resource="http://purl.org/dc/dcmitype/StillImage" /><dc:title /></cc:Work></rdf:RDF></metadata><defs
   id="defs41">
	
</defs><sodipodi:namedview
   pagecolor="#ffffff"
   bordercolor="#666666"
   borderopacity="1"
   objecttolerance="10"
   gridtolerance="10"
   guidetolerance="10"
   inkscape:pageopacity="0"
   inkscape:pageshadow="2"
   inkscape:window-width="1680"
   inkscape:window-height="985"
   id="namedview39"
   showgrid="false"
   inkscape:zoom="10.429825"
   inkscape:cx="0.35653199"
   inkscape:cy="24.948741"
   inkscape:window-x="0"
   inkscape:window-y="0"
   inkscape:window-maximized="1"
   inkscape:current-layer="Capa_1" />
<g
   style="fill:#ffffff;fill-opacity:1;stroke:#ffffff;stroke-width:10.9472059;stroke-miterlimit:4;stroke-dasharray:none;stroke-opacity:1"
   id="g4"
   transform="matrix(0.09134751,0,0,0.09134751,1.4848109,1.5369014)">
		<path
   style="fill:#ffffff;fill-opacity:1;stroke:#ffffff;stroke-width:10.9472059;stroke-miterlimit:4;stroke-dasharray:none;stroke-opacity:1"
   inkscape:connector-curvature="0"
   id="path2"
   d="M 467,61 H 45 C 20.218,61 0,81.196 0,106 v 300 c 0,24.72 20.128,45 45,45 h 422 c 24.72,0 45,-20.128 45,-45 V 106 C 512,81.28 491.872,61 467,61 Z M 460.786,91 256.954,294.833 51.359,91 Z M 30,399.788 V 112.069 l 144.479,143.24 z M 51.213,421 195.783,276.43 246.44,326.652 c 5.864,5.814 15.327,5.795 21.167,-0.046 L 317,277.213 460.787,421 Z M 482,399.787 338.213,256 482,112.212 Z" />
	</g>
<g
   id="g8"
   transform="translate(0,-462)">
</g>
<g
   id="g10"
   transform="translate(0,-462)">
</g>
<g
   id="g12"
   transform="translate(0,-462)">
</g>
<g
   id="g14"
   transform="translate(0,-462)">
</g>
<g
   id="g16"
   transform="translate(0,-462)">
</g>
<g
   id="g18"
   transform="translate(0,-462)">
</g>
<g
   id="g20"
   transform="translate(0,-462)">
</g>
<g
   id="g22"
   transform="translate(0,-462)">
</g>
<g
   id="g24"
   transform="translate(0,-462)">
</g>
<g
   id="g26"
   transform="translate(0,-462)">
</g>
<g
   id="g28"
   transform="translate(0,-462)">
</g>
<g
   id="g30"
   transform="translate(0,-462)">
</g>
<g
   id="g32"
   transform="translate(0,-462)">
</g>
<g
   id="g34"
   transform="translate(0,-462)">
</g>
<g
   id="g36"
   transform="translate(0,-462)">
</g>
</svg>