<?xml version="1.0" encoding="UTF-8" standalone="no"?>
<!-- Generator: Adobe Illustrator 19.0.0, SVG Export Plug-In . SVG Version: 6.00 Build 0)  -->

<svg
   xmlns:dc="http://purl.org/dc/elements/1.1/"
   xmlns:cc="http://creativecommons.org/ns#"
   xmlns:rdf="http://www.w3.org/1999/02/22-rdf-syntax-ns#"
   xmlns:svg="http://www.w3.org/2000/svg"
   xmlns="http://www.w3.org/2000/svg"
   xmlns:sodipodi="http://sodipodi.sourceforge.net/DTD/sodipodi-0.dtd"
   xmlns:inkscape="http://www.inkscape.org/namespaces/inkscape"
   version="1.1"
   id="Layer_1"
   x="0px"
   y="0px"
   viewBox="0 0 25 25"
   xml:space="preserve"
   sodipodi:docname="pdf-black-s.svg"
   width="25"
   height="25"
   inkscape:version="0.92.3 (2405546, 2018-03-11)"><metadata
   id="metadata61"><rdf:RDF><cc:Work
       rdf:about=""><dc:format>image/svg+xml</dc:format><dc:type
         rdf:resource="http://purl.org/dc/dcmitype/StillImage" /><dc:title></dc:title></cc:Work></rdf:RDF></metadata><defs
   id="defs59">
	
</defs><sodipodi:namedview
   pagecolor="#ffffff"
   bordercolor="#666666"
   borderopacity="1"
   objecttolerance="10"
   gridtolerance="10"
   guidetolerance="10"
   inkscape:pageopacity="0"
   inkscape:pageshadow="2"
   inkscape:window-width="1680"
   inkscape:window-height="985"
   id="namedview57"
   showgrid="false"
   inkscape:zoom="14.75"
   inkscape:cx="29.098972"
   inkscape:cy="11.017788"
   inkscape:window-x="0"
   inkscape:window-y="0"
   inkscape:window-maximized="1"
   inkscape:current-layer="Layer_1" />



<g
   id="g4"
   style="fill:#030303;fill-opacity:1;stroke-width:6.36478492;stroke-miterlimit:4;stroke-dasharray:none;stroke:#000000;stroke-opacity:1"
   transform="matrix(0.04713435,0,0,0.04713435,-0.20602318,0.4796163)">
		<path
   inkscape:connector-curvature="0"
   id="path2"
   d="M 494.479,138.557 364.04,3.018 C 362.183,1.09 359.621,0 356.945,0 H 162.535 C 140.778,0 123.077,17.694 123.077,39.442 V 177.231 H 44.29 c -16.278,0 -29.521,13.239 -29.521,29.513 V 354.488 C 14.769,370.761 28.012,384 44.29,384 h 78.787 v 88.627 c 0,21.71 17.701,39.373 39.458,39.373 h 295.238 c 21.757,0 39.458,-17.653 39.458,-39.351 V 145.385 c 0,-2.546 -0.987,-4.993 -2.752,-6.828 z M 359.385,26.581 466.464,137.846 H 359.385 Z M 44.29,364.308 c -5.42,0 -9.828,-4.405 -9.828,-9.82 V 206.744 c 0,-5.415 4.409,-9.821 9.828,-9.821 h 265.882 c 5.42,0 9.828,4.406 9.828,9.821 v 147.744 c 0,5.415 -4.409,9.82 -9.828,9.82 z m 433.248,108.341 c 0,10.84 -8.867,19.659 -19.766,19.659 H 162.535 c -10.899,0 -19.766,-8.828 -19.766,-19.68 V 384 h 167.403 c 16.278,0 29.521,-13.239 29.521,-29.512 V 206.744 c 0,-16.274 -13.243,-29.513 -29.521,-29.513 H 142.769 V 39.442 c 0,-10.891 8.867,-19.75 19.766,-19.75 h 177.157 v 128 c 0,5.438 4.409,9.846 9.846,9.846 h 128 z"
   style="fill:#030303;fill-opacity:1;stroke-width:6.36478492;stroke-miterlimit:4;stroke-dasharray:none;stroke:#000000;stroke-opacity:1" />
	</g><g
   style="fill:#030303;fill-opacity:1;stroke:#000000;stroke-opacity:1;stroke-width:3.11874461;stroke-miterlimit:4;stroke-dasharray:none"
   id="g12"
   transform="matrix(0.04713435,0,0,0.04713435,-0.20602318,0.4796163)">
	<g
   style="fill:#030303;fill-opacity:1;stroke:#000000;stroke-opacity:1;stroke-width:3.11874461;stroke-miterlimit:4;stroke-dasharray:none"
   id="g10">
		<path
   style="fill:#030303;fill-opacity:1;stroke:#000000;stroke-opacity:1;stroke-width:3.11874461;stroke-miterlimit:4;stroke-dasharray:none"
   d="m 132.481,249.894 c -3.269,-4.25 -7.327,-7.01 -12.173,-8.279 -3.154,-0.846 -9.923,-1.269 -20.308,-1.269 H 72.596 v 84.577 h 17.077 v -31.904 h 11.135 c 7.731,0 13.635,-0.404 17.712,-1.212 3,-0.654 5.952,-1.99 8.856,-4.01 2.904,-2.019 5.298,-4.798 7.183,-8.336 1.885,-3.538 2.827,-7.904 2.827,-13.096 -0.001,-6.731 -1.636,-12.221 -4.905,-16.471 z m -14.625,23.279 c -1.288,1.885 -3.067,3.269 -5.337,4.154 -2.27,0.885 -6.769,1.327 -13.5,1.327 h -9.346 v -24 h 8.25 c 6.154,0 10.25,0.192 12.288,0.577 2.769,0.5 5.058,1.75 6.865,3.75 1.808,2 2.712,4.539 2.712,7.615 0.001,2.5 -0.644,4.692 -1.932,6.577 z"
   id="path8"
   inkscape:connector-curvature="0" />
	</g>
</g><g
   style="fill:#030303;fill-opacity:1;stroke:#000000;stroke-opacity:1;stroke-width:3.11874461;stroke-miterlimit:4;stroke-dasharray:none"
   id="g18"
   transform="matrix(0.04713435,0,0,0.04713435,-0.20602318,0.4796163)">
	<g
   style="fill:#030303;fill-opacity:1;stroke:#000000;stroke-opacity:1;stroke-width:3.11874461;stroke-miterlimit:4;stroke-dasharray:none"
   id="g16">
		<path
   style="fill:#030303;fill-opacity:1;stroke:#000000;stroke-opacity:1;stroke-width:3.11874461;stroke-miterlimit:4;stroke-dasharray:none"
   d="m 219.481,263.452 c -1.846,-5.404 -4.539,-9.971 -8.077,-13.702 -3.538,-3.731 -7.789,-6.327 -12.75,-7.789 -3.692,-1.077 -9.058,-1.615 -16.096,-1.615 h -31.212 v 84.577 h 32.135 c 6.308,0 11.346,-0.596 15.115,-1.789 5.039,-1.615 9.039,-3.865 12,-6.75 3.923,-3.808 6.942,-8.788 9.058,-14.942 1.731,-5.039 2.596,-11.039 2.596,-18 0,-7.923 -0.923,-14.586 -2.769,-19.99 z m -16.616,34.731 c -1.154,3.789 -2.644,6.51 -4.471,8.163 -1.827,1.654 -4.125,2.827 -6.894,3.519 -2.115,0.539 -5.558,0.808 -10.327,0.808 h -12.75 v 0 -56.019 h 7.673 c 6.961,0 11.635,0.269 14.019,0.808 3.192,0.692 5.827,2.019 7.904,3.981 2.077,1.962 3.692,4.692 4.846,8.192 1.154,3.5 1.731,8.519 1.731,15.058 0,6.538 -0.577,11.701 -1.731,15.49 z"
   id="path14"
   inkscape:connector-curvature="0" />
	</g>
</g><g
   style="fill:#030303;fill-opacity:1;stroke:#000000;stroke-opacity:1;stroke-width:3.11874461;stroke-miterlimit:4;stroke-dasharray:none"
   id="g24"
   transform="matrix(0.04713435,0,0,0.04713435,-0.20602318,0.4796163)">
	<g
   style="fill:#030303;fill-opacity:1;stroke:#000000;stroke-opacity:1;stroke-width:3.11874461;stroke-miterlimit:4;stroke-dasharray:none"
   id="g22">
		<polygon
   style="fill:#030303;fill-opacity:1;stroke:#000000;stroke-opacity:1;stroke-width:3.11874461;stroke-miterlimit:4;stroke-dasharray:none"
   points="253.923,274.673 253.923,254.654 294.827,254.654 294.827,240.346 236.846,240.346 236.846,324.923 253.923,324.923 253.923,288.981 289.231,288.981 289.231,274.673 "
   id="polygon20" />
	</g>
</g>
<g
   id="g26"
   transform="translate(0,-487)">
</g>
<g
   id="g28"
   transform="translate(0,-487)">
</g>
<g
   id="g30"
   transform="translate(0,-487)">
</g>
<g
   id="g32"
   transform="translate(0,-487)">
</g>
<g
   id="g34"
   transform="translate(0,-487)">
</g>
<g
   id="g36"
   transform="translate(0,-487)">
</g>
<g
   id="g38"
   transform="translate(0,-487)">
</g>
<g
   id="g40"
   transform="translate(0,-487)">
</g>
<g
   id="g42"
   transform="translate(0,-487)">
</g>
<g
   id="g44"
   transform="translate(0,-487)">
</g>
<g
   id="g46"
   transform="translate(0,-487)">
</g>
<g
   id="g48"
   transform="translate(0,-487)">
</g>
<g
   id="g50"
   transform="translate(0,-487)">
</g>
<g
   id="g52"
   transform="translate(0,-487)">
</g>
<g
   id="g54"
   transform="translate(0,-487)">
</g>
</svg>