<?xml version="1.0" encoding="UTF-8" standalone="no"?>
<!-- Generator: Adobe Illustrator 19.0.0, SVG Export Plug-In . SVG Version: 6.00 Build 0)  -->

<svg
   xmlns:dc="http://purl.org/dc/elements/1.1/"
   xmlns:cc="http://creativecommons.org/ns#"
   xmlns:rdf="http://www.w3.org/1999/02/22-rdf-syntax-ns#"
   xmlns:svg="http://www.w3.org/2000/svg"
   xmlns="http://www.w3.org/2000/svg"
   xmlns:sodipodi="http://sodipodi.sourceforge.net/DTD/sodipodi-0.dtd"
   xmlns:inkscape="http://www.inkscape.org/namespaces/inkscape"
   version="1.1"
   id="Capa_1"
   x="0px"
   y="0px"
   viewBox="0 0 511.999 511.999"
   xml:space="preserve"
   sodipodi:docname="piaggio.svg"
   width="200"
   height="200"
   inkscape:version="0.92.3 (2405546, 2018-03-11)"><metadata
   id="metadata57"><rdf:RDF><cc:Work
       rdf:about=""><dc:format>image/svg+xml</dc:format><dc:type
         rdf:resource="http://purl.org/dc/dcmitype/StillImage" /><dc:title></dc:title></cc:Work></rdf:RDF></metadata><defs
   id="defs55"><marker
   inkscape:stockid="Arrow1Lstart"
   orient="auto"
   refY="0.0"
   refX="0.0"
   id="Arrow1Lstart"
   style="overflow:visible"
   inkscape:isstock="true"><path
     id="path883"
     d="M 0.0,0.0 L 5.0,-5.0 L -12.5,0.0 L 5.0,5.0 L 0.0,0.0 z "
     style="fill-rule:evenodd;stroke:none;stroke-width:1pt;stroke-opacity:1;fill:#000000;fill-opacity:1"
     transform="scale(0.8) translate(12.5,0)" /></marker>
	
	
	
	
</defs><sodipodi:namedview
   pagecolor="#ffffff"
   bordercolor="#666666"
   borderopacity="1"
   objecttolerance="10"
   gridtolerance="10"
   guidetolerance="10"
   inkscape:pageopacity="0"
   inkscape:pageshadow="2"
   inkscape:window-width="1680"
   inkscape:window-height="985"
   id="namedview53"
   showgrid="false"
   units="px"
   inkscape:zoom="2.6074614"
   inkscape:cx="156.64274"
   inkscape:cy="64.242979"
   inkscape:window-x="0"
   inkscape:window-y="0"
   inkscape:window-maximized="1"
   inkscape:current-layer="Capa_1" />
<path
   inkscape:connector-curvature="0"
   id="path2"
   d="m 470,135.069 v 239.93 c 0,2.13 -1.12,4.11 -2.95,5.19 l -208,123.47 c -0.94,0.56 -1.99,0.84 -3.05,0.84 -1.06,0 -2.11,-0.28 -3.05,-0.84 l -208,-123.47 C 43.12,379.109 42,377.129 42,374.999 V 131.609 L 252.98,8.319 c 0.94,-0.54 1.98,-0.82 3.02,-0.82 1.04,0 2.08,0.28 3.02,0.82 l 208,121.54 c 1.84,1.08 2.98,3.07 2.98,5.21 z"
   style="fill:#e3e3e3" /><path
   inkscape:connector-curvature="0"
   id="path4"
   d="m 470,135.069 v 239.93 c 0,2.13 -1.12,4.11 -2.95,5.19 l -208,123.47 c -0.94,0.56 -1.99,0.84 -3.05,0.84 v -497 c 1.04,0 2.08,0.28 3.02,0.82 l 208,121.54 c 1.84,1.08 2.98,3.07 2.98,5.21 z"
   style="fill:#cccccc" /><path
   inkscape:connector-curvature="0"
   id="path6"
   d="M 76.93,151.909 253.475,48.744 c 1.561,-0.912 3.49,-0.912 5.052,0 l 174.049,101.707 c 1.545,0.903 2.495,2.562 2.495,4.356 v 200.772 c 0,1.782 -0.937,3.431 -2.465,4.338 l -174.05,103.319 c -1.576,0.936 -3.535,0.936 -5.111,0 L 79.395,359.918 c -1.528,-0.907 -2.465,-2.556 -2.465,-4.338 z"
   style="fill:#00addc" /><path
   inkscape:connector-curvature="0"
   id="path8"
   d="m 377.192,217.719 c -19.33,-15.81 -46.497,-28.477 -69.612,-42.723 -21.764,-13.409 -45.452,-28.225 -50.797,-48.383 -0.217,-0.817 -1.347,-0.817 -1.564,0 -5.345,20.159 -29.033,34.974 -50.797,48.383 -23.115,14.247 -50.282,26.914 -69.613,42.723 C 122.27,228.286 115,245.145 115,264.106 c 0,33.801 26.122,61.228 58.476,61.228 12.028,0 23.131,-4.738 33.578,-10.998 10.447,-6.269 20.23,-14.051 29.615,-20.141 v 91.804 h 38.66 v -91.805 c 9.385,6.089 19.168,13.872 29.615,20.141 10.447,6.26 21.551,10.998 33.578,10.998 32.355,0 58.476,-27.427 58.476,-61.228 0.002,-18.96 -7.268,-35.819 -19.806,-46.386 z m -143.075,40.658 -49.431,27.646 c 0,0 -19.67,9.427 -31.69,-7.262 -6.079,-8.426 -5.917,-16.599 -3.907,-23.039 2.123,-6.789 6.719,-12.529 12.668,-16.379 l 72.36,-43.074 z m 124.89,20.384 c -12.02,16.689 -31.69,7.262 -31.69,7.262 L 277.886,258.377 V 196.27 l 72.36,43.074 c 5.949,3.851 10.544,9.59 12.668,16.379 2.01,6.439 2.172,14.613 -3.907,23.038 z"
   style="fill:#e3e3e3" />
<path
   d="m 470.803,123.385 -208,-121.547 c -4.196,-2.451 -9.408,-2.451 -13.604,0 L 38.216,125.127 c -2.301,1.345 -3.716,3.811 -3.716,6.476 v 59.77946 c 0,4.143 3.358,7.5 7.5,7.5 4.142,0 1.999259,-3.37453 2.38001,-7.5 v -60.59545 l 211.62099,-120.67 211.61899,120.669 V 379.28799 L 256.001,501.86999 44.38001,379.28799 V 184.496 c 0,-4.143 1.76199,-7.5 -2.38001,-7.5 -4.142,0 -7.5,3.357 -7.5,7.5 v 190.506 c 0,4.753 2.536,9.21 6.617,11.634 l 208.001,123.472 c 2.123,1.261 4.502,1.891 6.882,1.891 2.38,0 4.76,-0.631 6.882,-1.891 l 208,-123.472 c 4.081,-2.424 6.617,-6.881 6.617,-11.634 V 135.066 c 10e-4,-4.792 -2.566,-9.268 -6.696,-11.681 z"
   id="path12"
   inkscape:connector-curvature="0"
   sodipodi:nodetypes="ccccssssccccccssssccsccscc"
   style="fill:#2f2f2f;fill-opacity:1;stroke:none;stroke-width:0;stroke-miterlimit:4;stroke-dasharray:none;stroke-opacity:1" />
<path
   d="M 339.64009,423.83053 436.434,366.365 c 3.785,-2.248 6.136,-6.381 6.136,-10.788 V 154.805 c 0,-4.443 -2.38,-8.594 -6.21,-10.832 L 262.31,42.265 c -3.892,-2.273 -8.727,-2.272 -12.619,0 L 73.146,145.431 c -2.301,1.345 -3.716,3.811 -3.716,6.476 v 203.671 c 0,4.407 2.351,8.54 6.136,10.788 l 174.051,103.319 c 1.969,1.169 4.176,1.753 6.383,1.753 2.207,0 4.415,-0.584 6.384,-1.753 l 78.484,-46.59 c 3.562,-2.114 4.735,-6.716 2.621,-10.277 -2.114,-3.562 -6.715,0.38599 -10.278,2.49899 L 256,461.14999 79.31001,359.30299 V 151.09001 L 256,50.83201 l 176.68999,100.258 v 208.21298 l -100.7059,56.74953 c -3.562,2.114 -4.735,1.59601 -2.621,5.15701 2.115,3.563 6.718,4.736 10.277,2.621 z"
   id="path14"
   inkscape:connector-curvature="0"
   sodipodi:nodetypes="ccssccccssccsccccccccccccc"
   style="fill:#2f2f2f;fill-opacity:1;stroke:none;stroke-width:0;stroke-miterlimit:4;stroke-dasharray:none;stroke-opacity:1" />



<g
   id="g22">
</g>
<g
   id="g24">
</g>
<g
   id="g26">
</g>
<g
   id="g28">
</g>
<g
   id="g30">
</g>
<g
   id="g32">
</g>
<g
   id="g34">
</g>
<g
   id="g36">
</g>
<g
   id="g38">
</g>
<g
   id="g40">
</g>
<g
   id="g42">
</g>
<g
   id="g44">
</g>
<g
   id="g46">
</g>
<g
   id="g48">
</g>
<g
   id="g50">
</g>
</svg>