<?xml version="1.0" encoding="UTF-8" standalone="no"?>
<!-- Generator: Adobe Illustrator 18.0.0, SVG Export Plug-In . SVG Version: 6.00 Build 0)  -->

<svg
   xmlns:dc="http://purl.org/dc/elements/1.1/"
   xmlns:cc="http://creativecommons.org/ns#"
   xmlns:rdf="http://www.w3.org/1999/02/22-rdf-syntax-ns#"
   xmlns:svg="http://www.w3.org/2000/svg"
   xmlns="http://www.w3.org/2000/svg"
   xmlns:sodipodi="http://sodipodi.sourceforge.net/DTD/sodipodi-0.dtd"
   xmlns:inkscape="http://www.inkscape.org/namespaces/inkscape"
   version="1.1"
   id="Capa_1"
   x="0px"
   y="0px"
   viewBox="0 0 60.000001 60.000001"
   xml:space="preserve"
   sodipodi:docname="scooter.svg"
   width="60"
   height="60"
   inkscape:version="0.92.3 (2405546, 2018-03-11)"><metadata
   id="metadata43"><rdf:RDF><cc:Work
       rdf:about=""><dc:format>image/svg+xml</dc:format><dc:type
         rdf:resource="http://purl.org/dc/dcmitype/StillImage" /><dc:title></dc:title></cc:Work></rdf:RDF></metadata><defs
   id="defs41" /><sodipodi:namedview
   pagecolor="#ffffff"
   bordercolor="#666666"
   borderopacity="1"
   objecttolerance="10"
   gridtolerance="10"
   guidetolerance="10"
   inkscape:pageopacity="0"
   inkscape:pageshadow="2"
   inkscape:window-width="1680"
   inkscape:window-height="985"
   id="namedview39"
   showgrid="false"
   inkscape:zoom="11.640607"
   inkscape:cx="28.547453"
   inkscape:cy="31.776574"
   inkscape:window-x="0"
   inkscape:window-y="0"
   inkscape:window-maximized="1"
   inkscape:current-layer="Capa_1" />
<g
   id="g6"
   transform="matrix(0.12910589,0,0,0.12910589,0.35168397,-2.3617891)"
   style="fill:#ffffff;fill-opacity:1;stroke:none;stroke-opacity:1">
	<path
   d="m 386.172,303.19 c -16.701,0 -30.288,13.587 -30.288,30.289 0,16.701 13.587,30.288 30.288,30.288 16.701,0 30.288,-13.587 30.288,-30.288 0,-16.701 -13.587,-30.289 -30.288,-30.289 z m 0,45.577 c -8.43,0 -15.288,-6.858 -15.288,-15.288 0,-8.43 6.858,-15.289 15.288,-15.289 8.43,0 15.288,6.858 15.288,15.289 0,8.429 -6.858,15.288 -15.288,15.288 z"
   id="path2"
   inkscape:connector-curvature="0"
   style="fill:#ffffff;fill-opacity:1;stroke:none;stroke-opacity:1" />
	<path
   d="m 457.003,274.505 c -17.591,-21.089 -43.408,-33.184 -70.831,-33.184 -4.595,0 -9.11,0.343 -13.526,0.995 -3.044,-19.741 -21.612,-45.869 -39.606,-67.244 v -63.534 c 0,-2.341 -1.094,-4.548 -2.956,-5.967 -1.864,-1.42 -4.286,-1.885 -6.538,-1.263 l -12.224,3.372 c -6.525,1.8 -12.228,5.354 -16.649,10.063 l -6.421,-29.535 c -0.75,-3.448 -3.801,-5.907 -7.329,-5.907 H 267.83 V 71.497 c 0,-4.142 -3.357,-7.5 -7.5,-7.5 -4.143,0 -7.5,3.358 -7.5,7.5 v 37.753 c 0,4.142 3.357,7.5 7.5,7.5 4.143,0 7.5,-3.358 7.5,-7.5 V 97.301 h 7.048 l 9.238,42.495 c -3.953,4.174 -6.626,9.346 -7.751,15.042 l -21.583,23.726 c -2.787,3.064 -2.563,7.808 0.501,10.595 1.438,1.308 3.244,1.952 5.045,1.952 2.038,0 4.07,-0.826 5.55,-2.453 l 13.032,-14.325 c 0.946,1.908 2.094,3.734 3.448,5.445 8.495,10.734 20.248,27.153 27.999,44.422 8.361,18.627 10.337,34.108 5.873,46.013 -6.517,17.376 -25.587,30.745 -51.013,35.761 -27.141,5.357 -54.024,-0.354 -66.888,-14.207 -5.667,-6.103 -8.205,-12.161 -7.759,-18.52 0.793,-11.308 10.844,-24.881 29.872,-40.342 0.023,-0.019 1.558,-1.738 1.578,-1.768 5.875,-8.458 6.613,-19.352 1.89,-28.529 -4.779,-9.287 -14.237,-15.056 -24.682,-15.056 H 91.014 c -20.699,0 -37.722,15.993 -39.388,36.27 -4.312,4.385 -14.373,15.119 -24.521,29.552 C 9.119,278.953 0,302.825 0,324.326 c 0,4.142 3.357,7.5 7.5,7.5 h 16.016 9.65 c -0.015,0.551 -0.035,1.101 -0.035,1.652 0,33.784 27.485,61.269 61.269,61.269 28.427,0 52.391,-19.462 59.276,-45.761 h 173.22 c 6.886,26.298 30.849,45.761 59.276,45.761 33.784,0 61.27,-27.485 61.27,-61.269 0,-12.38 -3.703,-23.906 -10.042,-33.552 l 18.518,-14.751 c 1.579,-1.258 2.584,-3.099 2.789,-5.106 0.203,-2.009 -0.411,-4.015 -1.704,-5.564 z M 155.715,202.551 h 43.513 c 4.873,0 9.114,2.587 11.344,6.92 1.672,3.248 1.888,6.845 0.699,10.113 h -55.556 z m -64.701,0 h 49.701 v 17.033 H 67.652 c 3.177,-9.87 12.449,-17.033 23.362,-17.033 z m 3.385,177.197 c -25.513,0 -46.269,-20.756 -46.269,-46.269 0,-0.552 0.016,-1.103 0.035,-1.652 h 15.991 c -0.029,0.548 -0.046,1.099 -0.046,1.652 0,16.702 13.587,30.289 30.288,30.289 16.701,0 30.289,-13.587 30.289,-30.289 0,-0.553 -0.017,-1.104 -0.046,-1.652 h 15.992 c 0.019,0.55 0.035,1.1 0.035,1.652 0.001,25.512 -20.756,46.269 -46.269,46.269 z M 79.111,333.479 c 0,-0.556 0.033,-1.107 0.091,-1.652 h 30.395 c 0.059,0.545 0.091,1.096 0.091,1.652 0,8.43 -6.858,15.289 -15.289,15.289 -8.429,0 -15.288,-6.859 -15.288,-15.289 z m 64.508,-16.653 H 33.426 c 2.48,-7.17 7.068,-17.701 14.978,-27.849 18.106,-23.232 44.589,-33.798 78.692,-31.398 15.116,1.063 24.613,5.046 28.229,11.839 4.725,8.881 0.786,24.82 -11.706,47.408 z m 150.407,17.161 h -138.37 c 0.001,-0.17 0.013,-0.338 0.013,-0.508 0,-2.277 -0.138,-4.546 -0.386,-6.786 11.612,-20.377 23.176,-45.731 13.282,-64.321 -6.204,-11.659 -19.803,-18.306 -40.417,-19.755 -49.421,-3.476 -77.299,18.568 -91.987,37.672 -10.867,14.132 -16.18,28.598 -18.491,36.539 h -2.223 c 4.271,-36.595 37.897,-73.257 46.645,-82.242 h 134.131 c -13.002,13.279 -19.779,25.68 -20.616,37.613 -0.742,10.577 3.204,20.595 11.729,29.776 16.521,17.792 48.231,25.138 80.783,18.716 10.553,-2.082 20.231,-5.461 28.726,-9.909 -1.847,7.264 -2.832,14.868 -2.832,22.698 0.001,0.168 0.012,0.337 0.013,0.507 z m 21.284,-211.847 2.729,-0.753 v 36.686 c -7.712,-8.365 -14.258,-14.95 -17.953,-18.589 1.164,-8.186 7.089,-15.1 15.224,-17.344 z m -21.192,48.328 c -2.605,-3.291 -3.753,-7.403 -3.231,-11.578 0.249,-2 0.865,-3.892 1.805,-5.604 21.769,21.912 63.111,68.162 65.292,92.45 -8.806,2.836 -17.037,6.962 -24.471,12.157 0.423,-19.546 -8.139,-47.932 -39.395,-87.425 z m 92.054,209.28 c -25.513,0 -46.27,-20.756 -46.27,-46.269 0,-25.513 20.757,-46.269 46.27,-46.269 25.513,0 46.27,20.756 46.27,46.269 0,25.513 -20.757,46.269 -46.27,46.269 z m 41.524,-91.27 c -10.926,-10.09 -25.515,-16.269 -41.524,-16.269 -33.784,0 -61.27,27.485 -61.27,61.269 0,0.17 0.011,0.338 0.013,0.508 h -15.89 c -10e-4,-0.17 -0.012,-0.338 -0.012,-0.508 0,-42.545 34.613,-77.158 77.158,-77.158 20.385,0 39.713,7.985 54.104,22.137 z"
   id="path4"
   inkscape:connector-curvature="0"
   style="fill:#ffffff;fill-opacity:1;stroke:none;stroke-opacity:1" />
</g>
<g
   id="g8"
   transform="translate(0,-398.745)">
</g>
<g
   id="g10"
   transform="translate(0,-398.745)">
</g>
<g
   id="g12"
   transform="translate(0,-398.745)">
</g>
<g
   id="g14"
   transform="translate(0,-398.745)">
</g>
<g
   id="g16"
   transform="translate(0,-398.745)">
</g>
<g
   id="g18"
   transform="translate(0,-398.745)">
</g>
<g
   id="g20"
   transform="translate(0,-398.745)">
</g>
<g
   id="g22"
   transform="translate(0,-398.745)">
</g>
<g
   id="g24"
   transform="translate(0,-398.745)">
</g>
<g
   id="g26"
   transform="translate(0,-398.745)">
</g>
<g
   id="g28"
   transform="translate(0,-398.745)">
</g>
<g
   id="g30"
   transform="translate(0,-398.745)">
</g>
<g
   id="g32"
   transform="translate(0,-398.745)">
</g>
<g
   id="g34"
   transform="translate(0,-398.745)">
</g>
<g
   id="g36"
   transform="translate(0,-398.745)">
</g>
</svg>