<?xml version="1.0" encoding="UTF-8" standalone="no"?>
<!-- Generator: Adobe Illustrator 19.0.0, SVG Export Plug-In . SVG Version: 6.00 Build 0)  -->

<svg
   xmlns:dc="http://purl.org/dc/elements/1.1/"
   xmlns:cc="http://creativecommons.org/ns#"
   xmlns:rdf="http://www.w3.org/1999/02/22-rdf-syntax-ns#"
   xmlns:svg="http://www.w3.org/2000/svg"
   xmlns="http://www.w3.org/2000/svg"
   xmlns:sodipodi="http://sodipodi.sourceforge.net/DTD/sodipodi-0.dtd"
   xmlns:inkscape="http://www.inkscape.org/namespaces/inkscape"
   version="1.1"
   id="Capa_1"
   x="0px"
   y="0px"
   viewBox="0 0 50 50"
   xml:space="preserve"
   sodipodi:docname="search.svg"
   width="50"
   height="50"
   inkscape:version="0.92.3 (2405546, 2018-03-11)"><metadata
   id="metadata39"><rdf:RDF><cc:Work
       rdf:about=""><dc:format>image/svg+xml</dc:format><dc:type
         rdf:resource="http://purl.org/dc/dcmitype/StillImage" /><dc:title /></cc:Work></rdf:RDF></metadata><defs
   id="defs37" /><sodipodi:namedview
   pagecolor="#ffffff"
   bordercolor="#666666"
   borderopacity="1"
   objecttolerance="10"
   gridtolerance="10"
   guidetolerance="10"
   inkscape:pageopacity="0"
   inkscape:pageshadow="2"
   inkscape:window-width="1680"
   inkscape:window-height="985"
   id="namedview35"
   showgrid="false"
   inkscape:zoom="8.2856442"
   inkscape:cx="9.4179307"
   inkscape:cy="29.68894"
   inkscape:window-x="0"
   inkscape:window-y="0"
   inkscape:window-maximized="1"
   inkscape:current-layer="Capa_1" />
<path
   d="M 46.03265,43.599455 35.390377,32.530957 c 2.736316,-3.252809 4.235559,-7.345508 4.235559,-11.606185 0,-9.954661 -8.099054,-18.0537145 -18.053716,-18.0537145 -9.954662,0 -18.0537161,8.0990535 -18.0537161,18.0537145 0,9.954662 8.0990541,18.053716 18.0537161,18.053716 3.737119,0 7.298411,-1.12718 10.343209,-3.266937 l 10.723123,11.152486 c 0.448203,0.465472 1.05104,0.722149 1.697049,0.722149 0.611471,0 1.191545,-0.233128 1.631899,-0.656998 0.935653,-0.900331 0.965481,-2.393295 0.06515,-3.329733 z M 21.57222,7.5807225 c 7.358067,0 13.344051,5.9859835 13.344051,13.3440495 0,7.358067 -5.985984,13.344051 -13.344051,13.344051 -7.358066,0 -13.3440511,-5.985984 -13.3440511,-13.344051 0,-7.358066 5.9859851,-13.3440495 13.3440511,-13.3440495 z"
   id="path2"
   inkscape:connector-curvature="0"
   style="fill:#ffffff;fill-opacity:1;stroke-width:0.78494418" />
<g
   id="g4"
   transform="translate(0,-6.9659996)">
</g>
<g
   id="g6"
   transform="translate(0,-6.9659996)">
</g>
<g
   id="g8"
   transform="translate(0,-6.9659996)">
</g>
<g
   id="g10"
   transform="translate(0,-6.9659996)">
</g>
<g
   id="g12"
   transform="translate(0,-6.9659996)">
</g>
<g
   id="g14"
   transform="translate(0,-6.9659996)">
</g>
<g
   id="g16"
   transform="translate(0,-6.9659996)">
</g>
<g
   id="g18"
   transform="translate(0,-6.9659996)">
</g>
<g
   id="g20"
   transform="translate(0,-6.9659996)">
</g>
<g
   id="g22"
   transform="translate(0,-6.9659996)">
</g>
<g
   id="g24"
   transform="translate(0,-6.9659996)">
</g>
<g
   id="g26"
   transform="translate(0,-6.9659996)">
</g>
<g
   id="g28"
   transform="translate(0,-6.9659996)">
</g>
<g
   id="g30"
   transform="translate(0,-6.9659996)">
</g>
<g
   id="g32"
   transform="translate(0,-6.9659996)">
</g>
</svg>