<?xml version="1.0" encoding="UTF-8" standalone="no"?>
<!-- Generator: Adobe Illustrator 17.1.0, SVG Export Plug-In . SVG Version: 6.00 Build 0)  -->

<svg
   xmlns:dc="http://purl.org/dc/elements/1.1/"
   xmlns:cc="http://creativecommons.org/ns#"
   xmlns:rdf="http://www.w3.org/1999/02/22-rdf-syntax-ns#"
   xmlns:svg="http://www.w3.org/2000/svg"
   xmlns="http://www.w3.org/2000/svg"
   xmlns:sodipodi="http://sodipodi.sourceforge.net/DTD/sodipodi-0.dtd"
   xmlns:inkscape="http://www.inkscape.org/namespaces/inkscape"
   version="1.1"
   id="Capa_1"
   x="0px"
   y="0px"
   viewBox="0 0 25 25"
   xml:space="preserve"
   sodipodi:docname="tehn-black.svg"
   width="25"
   height="25"
   inkscape:version="0.92.3 (2405546, 2018-03-11)"><metadata
   id="metadata39"><rdf:RDF><cc:Work
       rdf:about=""><dc:format>image/svg+xml</dc:format><dc:type
         rdf:resource="http://purl.org/dc/dcmitype/StillImage" /><dc:title></dc:title></cc:Work></rdf:RDF></metadata><defs
   id="defs37" /><sodipodi:namedview
   pagecolor="#ffffff"
   bordercolor="#666666"
   borderopacity="1"
   objecttolerance="10"
   gridtolerance="10"
   guidetolerance="10"
   inkscape:pageopacity="0"
   inkscape:pageshadow="2"
   inkscape:window-width="1680"
   inkscape:window-height="985"
   id="namedview35"
   showgrid="false"
   inkscape:zoom="64"
   inkscape:cx="11.263616"
   inkscape:cy="15.12745"
   inkscape:window-x="0"
   inkscape:window-y="0"
   inkscape:window-maximized="1"
   inkscape:current-layer="Capa_1" />
<path
   d="m 24.595531,11.126859 c -0.03838,-0.341761 -0.437035,-0.598872 -0.781741,-0.598872 -1.11404,0 -2.10273,-0.6538693 -2.517366,-1.6659048 C 20.873163,7.8257545 21.14626,6.6173901 21.976269,5.8559447 22.23769,5.6169217 22.269553,5.2166927 22.050403,4.9388664 21.480029,4.2147512 20.832048,3.5605667 20.124337,2.9936628 19.847459,2.7715704 19.440604,2.8024866 19.200319,3.06843 18.47568,3.8709919 17.173934,4.1692188 16.167997,3.749535 15.121576,3.3092401 14.461083,2.2485167 14.525964,1.1099758 14.547308,0.75212479 14.28568,0.44117399 13.92909,0.39963719 13.020845,0.2944795 12.104607,0.29143028 11.193732,0.39248536 10.841666,0.4313948 10.580244,0.73498355 10.591917,1.0883129 10.631347,2.2157072 9.9633903,3.2577124 8.9270627,3.6822341 7.9332192,4.088247 6.6405177,3.7922282 5.9173504,2.9967116 5.6783274,2.7346591 5.2786239,2.7024809 4.9998505,2.9198417 4.2713192,3.4915828 3.6087221,4.1461883 3.0330899,4.864414 2.8087891,5.143607 2.8419137,5.5482536 3.1055436,5.7881178 3.9519567,6.554611 4.2248403,7.7733862 3.7853867,8.8218065 3.3658082,9.8213285 2.3280091,10.465207 1.1400447,10.465207 0.75453719,10.4528 0.48018132,10.711802 0.43759281,11.062397 c -0.10684001,0.913084 -0.10799712,1.843938 -0.005152,2.764487 0.0383828,0.343236 0.44881187,0.598136 0.79730399,0.598136 1.0589359,-0.02693 2.0749676,0.62821 2.5018019,1.665799 0.4247307,1.03633 0.1513215,2.244162 -0.6800536,3.006663 -0.2600542,0.239026 -0.2932843,0.638307 -0.073715,0.915818 0.5645903,0.719594 1.2132012,1.3742 1.9230148,1.945939 0.2786671,0.224406 0.6839446,0.192965 0.9254911,-0.07329 0.7274796,-0.804458 2.0290143,-1.102157 3.0308495,-0.681634 1.0494716,0.439139 1.7096505,1.499751 1.6451885,2.63861 -0.02114,0.357848 0.241127,0.669749 0.596455,0.710337 0.464795,0.05437 0.93201,0.08129 1.400696,0.08129 0.444817,0 0.889738,-0.02429 1.33466,-0.07382 0.352488,-0.03891 0.61349,-0.342812 0.601606,-0.69625 -0.04069,-1.126867 0.628736,-2.168977 1.6638,-2.592655 1.000471,-0.408643 2.287387,-0.109573 3.010975,0.684786 0.240284,0.261525 0.637569,0.293284 0.917501,0.07677 0.727267,-0.570271 1.388605,-1.22456 1.966759,-1.944679 0.224514,-0.278669 0.192652,-0.683841 -0.07245,-0.924125 -0.846204,-0.765965 -1.120558,-1.98527 -0.681105,-3.032636 0.413059,-0.986065 1.412263,-1.648134 2.486974,-1.648134 l 0.150377,0.004 c 0.348908,0.02831 0.669535,-0.240388 0.711703,-0.596347 0.107366,-0.913924 0.108525,-1.843726 0.0053,-2.764589 z m -12.065816,8.577722 c -3.8711629,0 -7.4228367,-3.387375 -7.4228367,-7.258436 0,-3.8710555 3.5667728,-7.5601987 7.4378307,-7.5601987 3.871057,0 7.223501,3.719762 7.223501,7.5908177 0,1.313944 -0.36227,2.542922 -0.991429,3.593864 l -3.314076,-3.06923 c 0.2222,-0.523895 0.339556,-1.091852 0.339449,-1.678 0,-1.147794 -0.447022,-2.2268151 -1.258736,-3.0383147 -0.811499,-0.8115007 -1.890519,-1.2584201 -3.038103,-1.2584201 -0.382984,0 -0.76418,0.050896 -1.132968,0.1513219 -0.7706123,0.2335908 -0.7790777,0.2288231 -0.201691,0.8036131 0,0 1.515213,1.5268866 2.022178,2.0337458 0.0531,0.0531 0.053,0.17982 0.04553,0.225458 l -0.0047,0.03334 c -0.05111,0.557335 -0.14964,1.226347 -0.230926,1.483458 -0.01094,0.01083 -0.02124,0.01998 -0.03239,0.03112 -0.01167,0.01167 -0.0224,0.02292 -0.03365,0.03449 -0.260476,0.0836 -0.939793,0.183288 -1.50596,0.233974 l 1.05e-4,-0.0031 -0.02545,0.0065 c -0.0045,3.83e-4 -0.01293,0.0012 -0.02408,0.0012 -0.0612,0 -0.151216,-0.01713 -0.233029,-0.09885 C 9.6205963,11.435149 8.1647963,9.9897602 8.1647963,9.9897602 7.5899816,9.3185807 7.5887384,9.3192994 7.3578174,10.198288 c -0.4007552,1.483036 0.024085,3.078274 1.1089904,4.16329 0.8117112,0.811602 1.8908382,1.258522 3.0386312,1.258522 0.586148,0 1.154105,-0.117246 1.677894,-0.339445 l 3.363036,3.321208 c -1.308793,0.659124 -2.876614,1.090138 -4.016654,1.102718 z"
   id="path2"
   inkscape:connector-curvature="0"
   style="fill:#222222;fill-opacity:1;stroke-width:0.10515751"
   sodipodi:nodetypes="csccccccccccccccccccccccccccccsccccccccccccccsssccccscccccccccccsccccsccc" />
<g
   id="g4"
   transform="translate(0,-206.233)">
</g>
<g
   id="g6"
   transform="translate(0,-206.233)">
</g>
<g
   id="g8"
   transform="translate(0,-206.233)">
</g>
<g
   id="g10"
   transform="translate(0,-206.233)">
</g>
<g
   id="g12"
   transform="translate(0,-206.233)">
</g>
<g
   id="g14"
   transform="translate(0,-206.233)">
</g>
<g
   id="g16"
   transform="translate(0,-206.233)">
</g>
<g
   id="g18"
   transform="translate(0,-206.233)">
</g>
<g
   id="g20"
   transform="translate(0,-206.233)">
</g>
<g
   id="g22"
   transform="translate(0,-206.233)">
</g>
<g
   id="g24"
   transform="translate(0,-206.233)">
</g>
<g
   id="g26"
   transform="translate(0,-206.233)">
</g>
<g
   id="g28"
   transform="translate(0,-206.233)">
</g>
<g
   id="g30"
   transform="translate(0,-206.233)">
</g>
<g
   id="g32"
   transform="translate(0,-206.233)">
</g>
</svg>