<?xml version="1.0" encoding="UTF-8" standalone="no"?>
<!-- Generator: Adobe Illustrator 17.1.0, SVG Export Plug-In . SVG Version: 6.00 Build 0)  -->

<svg
   xmlns:dc="http://purl.org/dc/elements/1.1/"
   xmlns:cc="http://creativecommons.org/ns#"
   xmlns:rdf="http://www.w3.org/1999/02/22-rdf-syntax-ns#"
   xmlns:svg="http://www.w3.org/2000/svg"
   xmlns="http://www.w3.org/2000/svg"
   xmlns:sodipodi="http://sodipodi.sourceforge.net/DTD/sodipodi-0.dtd"
   xmlns:inkscape="http://www.inkscape.org/namespaces/inkscape"
   version="1.1"
   id="Capa_1"
   x="0px"
   y="0px"
   viewBox="0 0 50 50"
   xml:space="preserve"
   sodipodi:docname="tehn.svg"
   width="50"
   height="50"
   inkscape:version="0.92.3 (2405546, 2018-03-11)"><metadata
   id="metadata39"><rdf:RDF><cc:Work
       rdf:about=""><dc:format>image/svg+xml</dc:format><dc:type
         rdf:resource="http://purl.org/dc/dcmitype/StillImage" /><dc:title></dc:title></cc:Work></rdf:RDF></metadata><defs
   id="defs37" /><sodipodi:namedview
   pagecolor="#ffffff"
   bordercolor="#666666"
   borderopacity="1"
   objecttolerance="10"
   gridtolerance="10"
   guidetolerance="10"
   inkscape:pageopacity="0"
   inkscape:pageshadow="2"
   inkscape:window-width="1680"
   inkscape:window-height="985"
   id="namedview35"
   showgrid="false"
   inkscape:zoom="8.1649245"
   inkscape:cx="25.515687"
   inkscape:cy="26.132618"
   inkscape:window-x="0"
   inkscape:window-y="0"
   inkscape:window-maximized="1"
   inkscape:current-layer="Capa_1" />
<path
   d="m 49.196734,22.417419 c -0.07734,-0.688628 -0.880598,-1.206689 -1.575157,-1.206689 -2.244722,0 -4.236868,-1.317505 -5.072332,-3.356692 -0.852844,-2.088134 -0.302573,-4.522911 1.369843,-6.057175 0.526747,-0.481616 0.590949,-1.288052 0.149375,-1.8478541 C 42.919196,8.4899629 41.613555,7.1718229 40.187565,6.0295475 39.629672,5.5820457 38.809885,5.6443399 38.325727,6.1801987 36.865624,7.7973099 34.24269,8.3982179 32.215791,7.5525819 30.10732,6.6654159 28.776469,4.5281262 28.9072,2.2340392 28.950207,1.5129923 28.423042,0.8864463 27.704536,0.8027519 25.87448,0.5908657 24.02832,0.5847215 22.192966,0.7883473 21.483574,0.8667453 20.956825,1.4784594 20.980345,2.1903947 21.059795,4.4620215 19.713904,6.5615959 17.625771,7.4169799 15.62324,8.2350699 13.018529,7.6386109 11.561393,6.0356961 11.079777,5.5076771 10.2744,5.4428398 9.7126895,5.8808077 8.2447455,7.0328299 6.9096546,8.3518179 5.7497926,9.7989969 5.2978408,10.361553 5.3645846,11.17689 5.895782,11.660201 c 1.7054685,1.544435 2.2553115,4.000189 1.3698405,6.112689 -0.8454239,2.013973 -2.9365228,3.311348 -5.3301952,3.311348 -0.7767729,-0.025 -1.32958246,0.496872 -1.41539556,1.203299 -0.2152758,1.839805 -0.2176073,3.715417 -0.010381,5.570264 0.077339,0.6916 0.90432726,1.205207 1.60651666,1.205207 2.133688,-0.05426 4.180927,1.265801 5.040971,3.356477 0.8558051,2.08814 0.3049031,4.521845 -1.3702646,6.058234 -0.5239926,0.481623 -0.5909491,1.286149 -0.1485312,1.845315 1.1376133,1.449936 2.4445229,2.768926 3.8747519,3.920944 0.5614965,0.452164 1.3781045,0.388811 1.8648055,-0.14768 1.465825,-1.62093 4.088334,-2.220775 6.106968,-1.373449 2.114619,0.884837 3.444837,3.021903 3.314951,5.31663 -0.04259,0.721041 0.485854,1.349503 1.201816,1.431285 0.936534,0.109544 1.877942,0.163788 2.822315,0.163788 0.896277,0 1.792765,-0.04894 2.689254,-0.148743 0.710242,-0.0784 1.236142,-0.690744 1.212196,-1.402899 -0.082,-2.270564 1.266865,-4.37035 3.352454,-5.224034 2.015885,-0.823388 4.608937,-0.220784 6.066921,1.379799 0.484157,0.526957 1.284661,0.590951 1.848705,0.154679 1.465397,-1.149059 2.797951,-2.46741 3.962895,-3.918402 0.452381,-0.5615 0.388179,-1.377896 -0.145984,-1.862054 -1.705048,-1.543372 -2.257855,-4.000192 -1.372385,-6.110567 0.832289,-1.986859 2.845621,-3.320885 5.011096,-3.320885 l 0.302998,0.0081 c 0.703029,0.05704 1.349071,-0.484366 1.434036,-1.201599 0.216336,-1.841499 0.218672,-3.71499 0.01064,-5.57047 z M 24.853403,39.260212 c -7.800147,0 -14.123026,-6.322881 -14.123026,-14.12282 0,-7.799931 6.323091,-14.122811 14.123026,-14.122811 7.799932,0 14.123028,6.32288 14.123028,14.122811 0,2.647513 -0.729951,5.123825 -1.997664,7.241406 l -6.184095,-6.184302 c 0.447718,-1.055616 0.684186,-2.200013 0.68397,-3.381064 0,-2.312731 -0.900722,-4.48689 -2.536274,-6.12201 -1.635118,-1.635122 -3.809276,-2.535636 -6.121584,-2.535636 -0.771688,0 -1.539774,0.102553 -2.282856,0.304904 -0.325457,0.08878 -0.591585,0.357026 -0.678246,0.683118 -0.08856,0.333509 0.01123,0.67528 0.271849,0.936111 0,0 3.05306,3.076579 4.074561,4.097868 0.107002,0.107003 0.106791,0.362325 0.09175,0.454284 l -0.0095,0.06717 c -0.102976,1.122994 -0.301514,2.471011 -0.465301,2.989071 -0.02203,0.02183 -0.0428,0.04026 -0.06525,0.06272 -0.02352,0.02352 -0.04514,0.04619 -0.0678,0.06949 -0.524841,0.16845 -1.893622,0.369313 -3.034413,0.471442 l 2.11e-4,-0.0062 -0.05128,0.01295 c -0.0091,7.71e-4 -0.02606,0.0023 -0.04853,0.0023 -0.123318,0 -0.304693,-0.03453 -0.469539,-0.199171 -1.063243,-1.063238 -3.996587,-3.975606 -3.996587,-3.975606 -0.263162,-0.262314 -0.533105,-0.317404 -0.712996,-0.317404 -0.419321,0 -0.794783,0.302997 -0.913015,0.737574 -0.807496,2.988223 0.04853,6.202525 2.234545,8.388763 1.635546,1.635328 3.809918,2.535842 6.122649,2.535842 1.18105,0 2.325445,-0.236244 3.380847,-0.683961 l 6.251263,6.251256 c -2.194716,1.404386 -4.800905,2.221838 -7.599703,2.221838 z"
   id="path2"
   inkscape:connector-curvature="0"
   style="stroke-width:0.21188566;fill:#ffffff;fill-opacity:1" />
<g
   id="g4"
   transform="translate(0,-181.233)">
</g>
<g
   id="g6"
   transform="translate(0,-181.233)">
</g>
<g
   id="g8"
   transform="translate(0,-181.233)">
</g>
<g
   id="g10"
   transform="translate(0,-181.233)">
</g>
<g
   id="g12"
   transform="translate(0,-181.233)">
</g>
<g
   id="g14"
   transform="translate(0,-181.233)">
</g>
<g
   id="g16"
   transform="translate(0,-181.233)">
</g>
<g
   id="g18"
   transform="translate(0,-181.233)">
</g>
<g
   id="g20"
   transform="translate(0,-181.233)">
</g>
<g
   id="g22"
   transform="translate(0,-181.233)">
</g>
<g
   id="g24"
   transform="translate(0,-181.233)">
</g>
<g
   id="g26"
   transform="translate(0,-181.233)">
</g>
<g
   id="g28"
   transform="translate(0,-181.233)">
</g>
<g
   id="g30"
   transform="translate(0,-181.233)">
</g>
<g
   id="g32"
   transform="translate(0,-181.233)">
</g>
</svg>