<?xml version="1.0" encoding="UTF-8" standalone="no"?>
<!-- Generator: Adobe Illustrator 19.0.0, SVG Export Plug-In . SVG Version: 6.00 Build 0)  -->

<svg
   xmlns:dc="http://purl.org/dc/elements/1.1/"
   xmlns:cc="http://creativecommons.org/ns#"
   xmlns:rdf="http://www.w3.org/1999/02/22-rdf-syntax-ns#"
   xmlns:svg="http://www.w3.org/2000/svg"
   xmlns="http://www.w3.org/2000/svg"
   xmlns:sodipodi="http://sodipodi.sourceforge.net/DTD/sodipodi-0.dtd"
   xmlns:inkscape="http://www.inkscape.org/namespaces/inkscape"
   version="1.1"
   id="Capa_1"
   x="0px"
   y="0px"
   viewBox="0 0 512.006 512.006"
   style="enable-background:new 0 0 512.006 512.006;"
   xml:space="preserve"
   sodipodi:docname="vespa.svg"
   inkscape:version="0.92.3 (2405546, 2018-03-11)"><metadata
   id="metadata103"><rdf:RDF><cc:Work
       rdf:about=""><dc:format>image/svg+xml</dc:format><dc:type
         rdf:resource="http://purl.org/dc/dcmitype/StillImage" /><dc:title></dc:title></cc:Work></rdf:RDF></metadata><defs
   id="defs101" /><sodipodi:namedview
   pagecolor="#ffffff"
   bordercolor="#666666"
   borderopacity="1"
   objecttolerance="10"
   gridtolerance="10"
   guidetolerance="10"
   inkscape:pageopacity="0"
   inkscape:pageshadow="2"
   inkscape:window-width="1680"
   inkscape:window-height="985"
   id="namedview99"
   showgrid="false"
   inkscape:zoom="0.46093212"
   inkscape:cx="256.00299"
   inkscape:cy="256.00299"
   inkscape:window-x="0"
   inkscape:window-y="0"
   inkscape:window-maximized="1"
   inkscape:current-layer="Capa_1" />
<g
   id="g6">
	<g
   id="g4">
		<path
   d="M153.42,306.636c-5.846-1.183-12.546-9.351-16.298-16.44c-1.052-1.986-2.944-3.397-5.154-3.84    c-2.212-0.444-4.504,0.126-6.244,1.553l-36.708,30.067c-2.624,2.149-3.47,5.788-2.061,8.867c1.233,2.695,3.923,4.373,6.821,4.373    c0.413,0,0.831-0.035,1.249-0.105c16.081-2.698,38.832-6.533,58.154-9.791c3.562-0.6,6.188-3.645,6.247-7.243    C159.485,310.479,156.96,307.351,153.42,306.636z M120.275,311.715l8.367-6.854c1.115,1.553,2.389,3.186,3.814,4.801    C128.384,310.348,124.297,311.037,120.275,311.715z"
   id="path2" />
	</g>
</g>
<g
   id="g12">
	<g
   id="g10">
		<path
   d="M415.172,226.965c-1.646-3.917-4.988-7.549-8.72-9.481c-0.068-0.035-0.137-0.069-0.206-0.102    c-6.374-3.053-13.973-1.568-18.434,3.561c-4.215,4.757-4.415,11.791-2.812,16.529c1.502,5.571,6.229,10.457,11.902,12.246    c0.129,0.041,0.26,0.078,0.392,0.112c1.423,0.366,2.836,0.544,4.216,0.544c4.58,0,8.792-1.97,11.753-5.628    c0.048-0.059,0.096-0.12,0.142-0.181C416.928,239.927,417.641,232.658,415.172,226.965z M401.478,235.428    c-0.056,0-0.131-0.006-0.224-0.02c-0.732-0.322-1.628-1.224-1.768-1.817c-0.072-0.302-0.163-0.6-0.271-0.892    c-0.198-0.527-0.184-1.471-0.04-1.956c0.096-0.016,0.275-0.013,0.473,0.059c0.577,0.35,1.384,1.206,1.722,2.007    C401.706,233.585,401.671,234.838,401.478,235.428z"
   id="path8" />
	</g>
</g>
<g
   id="g18">
	<g
   id="g16">
		<path
   d="M168.176,252.09c-3.372-4.641-8.837-6.4-14.616-4.696c-5.206,1.532-9.138,4.848-11.071,9.338    c-2.014,4.677-1.66,10.295,0.978,15.426c1.404,2.716,3.91,4.656,6.877,5.32c0.757,0.17,1.526,0.254,2.295,0.254    c2.397,0,4.791-0.812,6.812-2.351c0.174-0.132,0.343-0.273,0.505-0.42l8.619-7.849c0.416-0.378,0.788-0.801,1.108-1.263    C172.706,261.497,170.363,255.1,168.176,252.09z"
   id="path14" />
	</g>
</g>
<g
   id="g24">
	<g
   id="g22">
		<path
   d="M199.765,335.254c-0.764-4.057-4.686-6.728-8.754-5.965c-62.779,11.733-141.851,26.734-172.21,32.501    c0.496-1.325,0.989-2.636,1.445-3.85c2.142-5.698,4.203-11.179,5.608-15.226c4.915-0.861,15.527-2.688,38.404-6.564    c2.181-0.37,4.087-1.679,5.208-3.578c1.121-1.899,1.343-4.196,0.606-6.273l-4.56-12.858c-0.195-0.55-0.454-1.075-0.771-1.564    c-3.856-5.948-7.831-11.665-11.676-17.196c-17.424-25.063-32.471-46.709-33.426-82.006c-0.796-29.325,18.796-50.68,29.762-60.292    c2.46,5.597,5.804,12.928,9.18,19.472c2.151,4.196,4.117,7.653,5.863,10.317c-1.396,1.717-3.029,3.862-4.744,6.397    c-2.315,3.421-1.408,8.063,2.026,10.369c3.435,2.307,8.096,1.402,10.411-2.018c3.844-5.68,7.093-8.897,7.11-8.914    c2.675-2.6,3.02-6.765,0.809-9.766l-2.014-2.733c-1.114-1.51-3.078-4.548-6.111-10.462c-6.163-11.949-12.467-27.25-12.53-27.403    c-0.849-2.064-2.579-3.642-4.718-4.304c-2.139-0.659-4.462-0.336-6.335,0.887c-1.839,1.201-45.031,29.977-43.703,78.854    c1.075,39.741,18.082,64.205,36.087,90.106c3.616,5.202,7.35,10.574,10.931,16.064l1.299,3.664    c-21.653,3.676-33.256,5.683-34.528,5.97c-2.703,0.61-4.849,2.656-5.578,5.319c-0.8,2.924-4.047,11.56-6.656,18.5    c-1.558,4.142-3.029,8.056-4.115,11.077c-1.976,5.501-2.794,7.778-1.36,10.867c0.841,1.813,2.397,3.236,4.283,3.913    c0.82,0.294,1.681,0.443,2.545,0.443c0.47,0,0.941-0.044,1.407-0.132c1.049-0.2,105.835-20.137,184.817-34.898    C197.848,343.211,200.529,339.307,199.765,335.254z"
   id="path20" />
	</g>
</g>
<g
   id="g30">
	<g
   id="g28">
		<path
   d="M509.364,248.871c-1.687-1.432-3.924-2.051-6.109-1.68l-21.627,3.624c-0.07-3.268-0.127-7.143-0.127-10.998    c0-2.562-1.318-4.945-3.492-6.313c-2.173-1.368-4.9-1.532-7.224-0.435c-2.722,1.287-9.357,4.031-12.197,1.745    c-5.841-4.705-4.431-26.225-1.169-39.948c0.523-2.189,0.027-4.497-1.351-6.282c-1.377-1.785-3.49-2.856-5.749-2.914    c0,0-8.009-0.21-15.131-0.379c-2.856-0.07-5.572-0.134-7.575-0.18c-4.604-0.104-7.932-0.178-10.1,3.936    c-0.147,0.28-0.277,0.57-0.388,0.867c-5.877-2.326-13.775-4.141-22.255-2.387c-15.646,3.236-26.46,11.112-32.17,23.419    l-11.311,6.468c-6.537-10.351-16.343-17.042-28.273-19.129c-0.265-0.053-0.544-0.1-0.881-0.156    c-0.04-0.007-0.08-0.013-0.121-0.019c-3.389-0.508-6.843-0.648-10.334-0.409c-0.439,0.034-0.867,0.069-1.294,0.113    c-0.547,0.049-1.096,0.119-1.662,0.194c-3.288,0.447-6.646,1.215-9.985,2.28c-0.118,0.031-0.236,0.066-0.353,0.104    c-11.086,3.566-20.195,9.602-24.305,14.002c-1.311,1.403-2.03,3.255-2.008,5.172c0,0,0.051,4.471,0.092,9.417    c-1.302,0.902-3.19,2.189-5.901,4.016c-0.13-0.313-0.263-0.624-0.399-0.934c-0.033-0.08-0.066-0.159-0.101-0.236    c-7.55-16.88-21.774-21.744-25.27-22.706c-0.199-0.061-0.401-0.114-0.607-0.159l-0.29-0.059c-2.543-0.489-5.188,0.362-6.946,2.255    l-33.6,36.141c-0.308-0.782-0.71-1.539-1.208-2.255c-7.39-10.591-18.731-18.233-30.358-20.468    c-0.071-0.016-0.142-0.029-0.212-0.043v-0.003c-3.935-0.748-7.924-0.874-11.856-0.379c-0.775,0.085-1.607,0.213-2.536,0.391    c-0.106,0.02-0.212,0.044-0.317,0.068c-5.173,1.049-9.918,3.011-14.152,5.793l-13.662-27.667c-1.651-3.343-5.523-4.96-9.073-3.799    c-1.409,0.462-34.681,11.744-51.928,50.469c-0.172,0.373-0.339,0.76-0.503,1.143l-0.114,0.266    c-0.663,1.55-1.265,3.123-1.813,4.706c-2.951-11.077-3.147-22.173-0.568-33.172c0.942-4.017-1.564-8.034-5.598-8.972    c-4.034-0.933-8.067,1.559-9.009,5.576c-5.083,21.68-1.407,43.457,10.925,64.727c1.601,2.761,4.784,4.207,7.926,3.597    c3.142-0.609,5.55-3.137,5.995-6.294c1.083-7.683,2.636-16.579,5.934-24.297l0.118-0.274c0.112-0.263,0.224-0.527,0.343-0.781    c0.019-0.04,0.037-0.08,0.055-0.121c10.396-23.379,27.929-35.013,37.036-39.73l11.394,23.077c-1.228,0.34-3.026,0.612-3.928,0.748    c-0.583,0.089-1.111,0.169-1.588,0.254c-10.422,1.895-32.046,15.612-38.03,36.187l-0.448,1.519    c-0.707,2.387-1.438,4.855-2.061,7.409c-0.607,2.432-1.049,4.654-1.349,6.791c-0.418,2.971,0.989,5.903,3.572,7.444    c1.19,0.71,2.524,1.062,3.854,1.062c1.557,0,3.109-0.482,4.421-1.436l39.578-28.763c1.441-1.048,2.46-2.572,2.874-4.3l0.111-0.48    c1.912-8.436,7.422-23.042,22.846-26.075v-0.001c0.064-0.013,0.127-0.026,0.191-0.04c0.46-0.086,0.848-0.144,1.181-0.179    c0.055-0.006,0.109-0.013,0.164-0.019c2.323-0.299,4.689-0.232,7.031,0.195c0.089,0.02,0.178,0.039,0.268,0.055    c6.824,1.285,13.84,5.665,18.932,11.689c-1.299,1.196-2.575,2.432-3.75,3.727c-2.184,2.413-3.615,4.601-4.493,6.86    c-1.198,3.047-1.063,6.482,0.371,9.425c1.435,2.944,4.063,5.176,7.225,6.129c1.1,0.33,2.236,0.496,3.377,0.496    c3.204,0,6.312-1.326,8.526-3.639c0.025-0.026,0.05-0.053,0.075-0.079l45.364-48.79c3.472,1.824,8.561,5.554,11.806,12.692    c0.027,0.065,0.055,0.13,0.084,0.195c1.12,2.506,1.953,5.283,2.475,8.252c0.438,2.488,2.108,4.587,4.44,5.579    c2.332,0.993,5.009,0.745,7.117-0.66c2.61-1.739,7.099-4.732,10.924-7.327c1.949-1.323,3.729-2.545,5.016-3.455    c2.193-1.551,5.731-4.052,5.144-8.447c-0.022-3.275-0.055-6.69-0.08-9.117c3.25-2.527,8.978-5.882,15.585-8.053    c0.12-0.032,0.239-0.068,0.357-0.106c2.601-0.846,5.195-1.449,7.675-1.787c0.341-0.045,0.688-0.093,1.037-0.124    c0.045-0.004,0.09-0.008,0.136-0.013c0.312-0.033,0.624-0.057,0.873-0.077c2.322-0.158,4.665-0.064,6.964,0.276    c0.017,0.003,0.031,0.005,0.032,0.005c0.112,0.018,0.228,0.036,0.339,0.058c0.082,0.018,0.164,0.033,0.246,0.047    c9.694,1.672,16.754,7.617,20.981,17.667c0.832,1.976,2.474,3.501,4.512,4.188c2.038,0.69,4.274,0.471,6.139-0.597l20.169-11.533    c0.561-0.32,1.078-0.712,1.538-1.165c1.167-1.149,1.673-2.351,2.12-3.41c1.304-3.097,5.273-12.519,22.011-15.982    c8.549-1.762,16.989,3.02,19.374,4.528c1.921,1.217,4.294,1.496,6.449,0.763c2.154-0.734,3.857-2.403,4.628-4.537l1.017-2.813    c1.457,0.034,3.255,0.078,5.437,0.131c2.076,0.05,4.225,0.102,6.23,0.152c-2.168,13.42-3.794,36.457,8.093,46.044    c4.709,3.799,10.558,5.051,17.465,3.747c0.107,5.438,0.256,9.456,0.266,9.715c0.08,2.148,1.085,4.157,2.759,5.514    c1.673,1.358,3.854,1.929,5.98,1.575l21.319-3.573l-0.069,9.327l-19.548,3.644c-4.071,0.759-6.754,4.662-5.992,8.717    c0.762,4.055,4.682,6.726,8.752,5.968l25.622-4.776c3.528-0.657,6.093-3.712,6.12-7.287l0.18-24.38    C512.016,252.405,511.051,250.303,509.364,248.871z M118.927,259.619l-19.231,13.976c5.363-9.231,14.965-15.595,20.437-18.012    C119.694,256.894,119.291,258.241,118.927,259.619z"
   id="path26" />
	</g>
</g>
<g
   id="g36">
	<g
   id="g34">
		<path
   d="M233.467,262.88c-0.329-2.964-2.397-5.45-5.26-6.322c-2.865-0.87-5.973,0.036-7.911,2.308l-24.999,29.32    c-0.661,0.774-1.15,1.669-1.447,2.625c-1.05,1.898-4.672,7.584-7.728,12.227c-1.511,2.295-1.636,5.231-0.326,7.646    c1.31,2.415,3.843,3.92,6.598,3.92c0.477,0,0.956-0.047,1.427-0.138c1.643-0.269,9.989-1.676,16.975-2.856    c1.736-0.293,3.313-1.185,4.455-2.519C229.157,292.842,235.115,277.726,233.467,262.88z"
   id="path32" />
	</g>
</g>
<g
   id="g42">
	<g
   id="g40">
		<path
   d="M329.711,233.28c-1.335-4.498-4.648-7.718-6.542-9.263c-0.098-0.08-0.197-0.157-0.299-0.231    c-5.76-4.231-13.927-4.276-19.417-0.108c-0.147,0.112-0.29,0.229-0.428,0.351c-5.614,4.955-6.228,13.062-4.346,18.899    c0.039,0.123,0.082,0.243,0.127,0.364c2.394,6.293,7.694,10.834,13.83,11.852c0.06,0.01,0.121,0.019,0.182,0.027    c0.779,0.11,1.551,0.164,2.312,0.164c4.796,0,9.178-2.149,12.268-6.09c0.051-0.065,0.101-0.13,0.149-0.196    C330.676,244.775,331.541,238.356,329.711,233.28z M315.452,240.199c-0.169,0.185-0.27,0.207-0.422,0.195    c-0.679-0.155-1.587-0.941-2.124-2.213c-0.286-1.028-0.213-2.097-0.063-2.649c0.329-0.002,0.756,0.068,1.029,0.218    c0.91,0.79,1.38,1.537,1.454,1.757c0.075,0.284,0.157,0.537,0.265,0.809C315.731,238.757,315.633,239.801,315.452,240.199z"
   id="path38" />
	</g>
</g>
<g
   id="g48">
	<g
   id="g46">
		<path
   d="M392.207,266.049c-0.709-0.061-17.332-1.707-17.702-21.639c-0.05-2.695-1.554-5.154-3.935-6.435    c-2.382-1.282-5.271-1.184-7.56,0.253c-0.354,0.222-8.731,5.482-14.75,9.589c-1.709,1.166-2.857,2.984-3.173,5.023    c-2.635,16.998-23.221,19.287-27.315,19.573c-2.322,0.16-4.549,0.1-5.963-0.161c-0.046-0.009-0.09-0.018-0.133-0.026    c-0.596-0.15-1.212-0.228-1.836-0.228c-2.089,0-4.083,0.868-5.502,2.394c-1.419,1.527-2.135,3.573-1.975,5.648l0.6,7.788    c0.161,2.092,1.199,4.02,2.858,5.312c1.328,1.035,2.957,1.585,4.619,1.585c0.415,0,0.831-0.034,1.246-0.104    c15.224-2.555,30.08-5.088,44.452-7.538c12.626-2.152,24.878-4.242,36.677-6.226c3.724-0.626,6.4-3.913,6.245-7.671    C398.906,269.428,395.969,266.37,392.207,266.049z M353.607,272.357c-0.629,0.107-1.26,0.215-1.891,0.322    c3.443-3.861,6.098-8.568,7.518-14.218c0.718-0.478,1.45-0.961,2.181-1.439c1.645,5.233,4.228,9.434,7.273,12.766    C363.725,270.632,358.696,271.49,353.607,272.357z"
   id="path44" />
	</g>
</g>
<g
   id="g54">
	<g
   id="g52">
		<path
   d="M453.284,288.45c-0.762-4.055-4.679-6.722-8.75-5.967L310.319,307.5c-3.731,0.695-6.352,4.059-6.104,7.831l0.435,6.612    c-0.839,0.159-1.723,0.326-2.637,0.499c-4.15,0.785-9.118,1.724-13.274,2.5l-0.449-5.008c-0.178-1.983-1.143-3.814-2.682-5.085    s-3.523-1.875-5.512-1.686c-1.265,0.122-4.624,0.446-57.286,10.205c-4.072,0.754-6.759,4.654-6.002,8.71    c0.758,4.056,4.675,6.738,8.745,5.977c26.954-4.993,41.136-7.544,48.512-8.819l0.465,5.184c0.186,2.068,1.227,3.966,2.874,5.238    c1.324,1.022,2.943,1.567,4.596,1.567c0.403,0,0.809-0.032,1.212-0.098c2.982-0.486,13.305-2.439,21.6-4.008    c4.047-0.765,7.502-1.419,9.114-1.715c3.742-0.686,6.375-4.054,6.126-7.835l-0.435-6.603l127.675-23.799    C451.363,296.408,454.046,292.505,453.284,288.45z"
   id="path50" />
	</g>
</g>
<g
   id="g60">
	<g
   id="g58">
		<path
   d="M286.648,261.98c-0.059-2.76-1.642-5.264-4.116-6.51c-2.473-1.243-5.436-1.029-7.703,0.562l-18.939,13.296    c-1.498,1.051-2.558,2.614-2.979,4.391c-0.228,0.962-0.473,1.95-0.746,2.956l-5.984,17.754c-0.838,2.486-0.306,5.227,1.402,7.223    c1.439,1.679,3.533,2.623,5.708,2.623c0.409,0,0.821-0.033,1.231-0.101l26.499-4.391c3.676-0.61,6.345-3.815,6.267-7.526    L286.648,261.98z M264.375,287.396l2.117-6.28h-0.003c0.074-0.222,0.138-0.446,0.192-0.674c0.046-0.17,0.091-0.339,0.135-0.509    l5.133-3.603l0.207,9.776L264.375,287.396z"
   id="path56" />
	</g>
</g>
<g
   id="g66">
	<g
   id="g64">
		<path
   d="M447.292,257.03c-0.771-0.214-5.486-1.78-8.727-8.727c-1.421-3.045-4.71-4.778-8.036-4.22    c-3.327,0.552-5.874,3.249-6.225,6.589c-0.819,7.793-3.438,11.551-3.874,12.129c-2.222,2.308-2.6,5.647-1.111,8.49    c1.295,2.473,3.934,3.889,6.691,3.889c0.44,0,0.884-0.036,1.326-0.11c4.701-0.786,9.244-1.549,13.615-2.284l6.209-1.044    c3.683-0.618,6.558-3.811,6.461-7.529C453.524,260.528,450.95,257.499,447.292,257.03z"
   id="path62" />
	</g>
</g>
<g
   id="g68">
</g>
<g
   id="g70">
</g>
<g
   id="g72">
</g>
<g
   id="g74">
</g>
<g
   id="g76">
</g>
<g
   id="g78">
</g>
<g
   id="g80">
</g>
<g
   id="g82">
</g>
<g
   id="g84">
</g>
<g
   id="g86">
</g>
<g
   id="g88">
</g>
<g
   id="g90">
</g>
<g
   id="g92">
</g>
<g
   id="g94">
</g>
<g
   id="g96">
</g>
</svg>